<?xml version="1.0" standalone="no"?>
<!DOCTYPE svg PUBLIC "-//W3C//DTD SVG 20010904//EN"
 "http://www.w3.org/TR/2001/REC-SVG-20010904/DTD/svg10.dtd">
<svg version="1.0" xmlns="http://www.w3.org/2000/svg"
 width="655.000000pt" height="377.000000pt" viewBox="0 0 655.000000 377.000000"
 preserveAspectRatio="xMidYMid meet">

<g transform="translate(0.000000,377.000000) scale(0.100000,-0.100000)"
fill="#000000" stroke="none">
<path d="M2300 3501 c-44 -14 -126 -59 -159 -87 -86 -72 -108 -166 -86 -370
16 -156 10 -207 -31 -261 -20 -27 -43 -38 -156 -73 -209 -65 -313 -131 -362
-230 -13 -25 -33 -96 -45 -157 -11 -62 -32 -136 -44 -165 -30 -67 -124 -162
-206 -208 -296 -167 -451 -327 -531 -549 -23 -63 -23 -64 -5 -98 47 -87 199
-189 360 -242 106 -35 155 -45 173 -33 7 5 67 155 134 333 66 178 122 326 124
328 8 8 13 -7 84 -229 39 -124 97 -308 130 -410 32 -102 62 -198 66 -213 l7
-29 -29 15 c-57 29 -139 47 -338 73 -432 56 -598 106 -705 215 -157 160 -152
383 14 566 71 79 140 124 352 229 274 135 337 207 354 406 9 119 17 148 55
218 37 68 82 102 200 151 157 65 246 132 278 211 24 56 22 198 -4 247 -39 78
-163 157 -263 168 l-52 6 62 -46 c78 -58 115 -119 115 -187 0 -127 -112 -201
-362 -240 -195 -30 -331 -83 -402 -157 -44 -46 -87 -137 -118 -253 -60 -227
-180 -414 -373 -581 -118 -102 -113 -79 23 114 14 19 13 20 -7 15 -19 -5 -21
-3 -13 12 5 9 21 25 35 34 49 32 16 29 -42 -4 -217 -122 -374 -309 -443 -525
-31 -98 -32 -255 -1 -340 42 -118 139 -231 257 -300 36 -21 66 -41 69 -44 6
-11 -80 -259 -119 -344 -20 -43 -54 -105 -76 -138 -40 -57 -45 -72 -18 -46 7
7 42 34 77 60 62 48 63 48 85 30 11 -11 32 -25 46 -32 14 -7 38 -23 53 -35
l29 -23 -80 -41 c-83 -43 -205 -82 -257 -82 -39 0 -64 -15 -40 -24 27 -10 783
-7 790 3 3 5 0 20 -6 34 -9 20 1 54 72 238 87 228 105 270 123 281 19 13 277
8 356 -6 127 -23 300 -114 300 -158 0 -41 33 -153 61 -210 35 -69 125 -162
171 -176 42 -13 755 -23 786 -11 22 9 21 10 -30 71 -30 35 -74 97 -100 138
-63 101 -218 420 -225 463 -5 31 0 40 50 94 84 93 94 149 47 280 -12 32 -27
87 -34 123 -10 52 -16 65 -30 63 -15 -1 -17 4 -12 30 6 32 5 32 -42 -19 -52
-55 -69 -96 -78 -195 -10 -100 -18 -101 -54 -3 -146 399 -283 878 -297 1040
-5 68 -4 73 18 87 13 9 76 25 139 36 63 11 136 27 162 35 111 33 212 121 262
226 28 58 31 75 31 155 -1 74 -6 101 -28 155 -31 75 -146 249 -165 250 -7 0
-19 15 -27 33 -12 29 -14 30 -21 12 -11 -28 -10 -159 3 -285 10 -100 9 -107
-12 -155 l-23 -50 -1 59 c-1 33 -13 120 -27 195 -23 119 -25 143 -16 195 23
124 99 196 207 196 41 0 57 -5 87 -30 61 -50 63 -111 6 -176 -32 -36 -27 -42
17 -22 21 9 28 9 34 -1 13 -20 79 15 102 53 46 75 28 148 -55 224 -74 68 -144
96 -246 99 -47 1 -96 -1 -110 -6z m-173 -308 c-3 -10 -5 -2 -5 17 0 19 2 27 5
18 2 -10 2 -26 0 -35z m12 -227 c1 -89 -14 -139 -58 -185 -20 -20 -26 -26 -14
-12 12 14 32 48 44 76 20 45 21 61 17 180 -4 82 -3 108 2 70 4 -33 8 -91 9
-129z m-549 -182 c-25 -7 -52 -13 -60 -13 -21 1 60 27 85 28 11 0 0 -7 -25
-15z m-1370 -1230 c0 -14 -4 -23 -10 -19 -5 3 -10 15 -10 26 0 10 5 19 10 19
6 0 10 -12 10 -26z m2235 -487 c-9 -19 -40 -63 -70 -98 -31 -35 -63 -81 -73
-101 -9 -21 -20 -38 -25 -38 -15 0 33 77 93 149 64 77 79 104 81 149 l2 27 4
-27 c2 -15 -3 -43 -12 -61z m-955 -277 c23 -6 2 -7 -60 -3 -52 3 -102 10 -110
15 -18 11 116 1 170 -12z"/>
<path d="M3430 2063 c-133 -22 -297 -95 -389 -173 -133 -112 -229 -289 -278
-510 -21 -94 -24 -424 -5 -515 73 -337 232 -538 516 -651 139 -55 268 -77 426
-71 147 5 198 18 312 79 149 79 289 284 288 422 0 37 -37 76 -72 76 -23 0 -26
-5 -36 -67 -35 -208 -212 -386 -420 -423 -128 -23 -248 16 -334 108 -137 146
-196 411 -185 827 6 221 16 308 48 433 42 165 139 306 247 359 48 24 69 28
137 27 68 0 88 -4 134 -28 109 -56 216 -186 272 -331 31 -82 38 -87 105 -89
57 -1 57 -1 66 33 5 19 8 128 6 242 -3 207 -3 207 -28 228 -14 11 -36 20 -49
21 -35 0 -95 -45 -137 -102 -20 -26 -38 -48 -40 -48 -2 0 -25 15 -51 34 -68
48 -160 92 -230 110 -57 15 -237 20 -303 9z"/>
<path d="M4494 2045 c-9 -24 3 -32 81 -56 l75 -24 0 -856 0 -857 -77 -19 c-62
-15 -78 -23 -78 -37 0 -43 60 -47 807 -44 608 3 700 5 708 18 5 8 10 110 10
227 0 209 0 212 -24 237 -38 42 -89 36 -138 -15 -69 -73 -116 -185 -127 -309
l-6 -65 -293 -3 -292 -2 2 407 3 408 130 3 131 3 22 -68 c12 -38 37 -93 55
-123 28 -46 40 -56 79 -69 80 -24 78 -31 78 292 l0 280 -26 23 c-66 62 -138
-8 -194 -186 l-18 -55 -131 -3 -131 -3 0 405 c0 359 2 405 16 410 9 3 127 6
264 6 l248 0 7 -52 c14 -113 70 -240 134 -308 22 -23 44 -39 50 -36 5 4 12 2
16 -4 3 -5 22 -10 41 -10 51 0 56 22 52 251 -3 194 -3 196 -28 222 l-25 27
-708 0 c-609 0 -708 -2 -713 -15z"/>
<path d="M2408 1686 c-4 -34 -18 -67 -51 -114 -61 -91 -65 -101 -67 -152 -3
-71 0 -77 17 -40 12 26 17 31 20 18 3 -10 8 -18 13 -18 4 0 35 29 68 64 46 49
62 75 71 113 12 50 3 103 -19 103 -5 0 -18 16 -28 37 l-19 36 -5 -47z"/>
</g>
</svg>
